<?xml version="1.0" encoding="UTF-8"?>
<svg width="142px" height="54px" viewBox="0 0 142 54" version="1.1" xmlns="http://www.w3.org/2000/svg" xmlns:xlink="http://www.w3.org/1999/xlink">
    <!-- Generator: Sketch 51.1 (57501) - http://www.bohemiancoding.com/sketch -->
    <title>logo_ comxpr-azul</title>
    <desc>Created with Sketch.</desc>
    <defs>
        <polygon id="path-1" points="0 0.143274194 47.5671273 0.143274194 47.5671273 54 0 54"></polygon>
    </defs>
    <g id="Wireframes" stroke="none" stroke-width="1" fill="none" fill-rule="evenodd">
        <g id="Pag_Comercio-Express-home" transform="translate(-142.000000, -8.000000)">
            <g id="logo_-comxpr-azul" transform="translate(142.000000, 8.000000)">
                <path d="M46.3871276,19.1722282 C46.0070782,18.9438562 45.5380082,18.9429693 45.1579588,19.1673503 L34.6210041,25.3905978 C34.2371029,25.6198567 34,26.0424557 34,26.50053 C34,26.9586043 34.2371029,27.3825337 34.6210041,27.6078016 L45.1579588,33.8337097 C45.3471276,33.9441265 45.5589794,34 45.7678354,34 C45.9818272,34 46.194535,33.9419093 46.3871276,33.827945 C46.766749,33.5991296 47,33.1791912 47,32.7255513 L47,20.2750653 C47,19.8223123 46.766749,19.4001567 46.3871276,19.1722282" id="Fill-1" fill="#009FE3"></path>
                <g id="Group-5">
                    <mask id="mask-2" fill="white">
                        <use xlink:href="#path-1"></use>
                    </mask>
                    <g id="Clip-4"></g>
                    <path d="M21.5991273,27.066629 L2.16741818,38.1213871 L2.16741818,16.0092581 L21.5991273,27.066629 Z M3.27447273,14.1453871 L23.7901091,2.46091935 L44.3079273,14.1453871 L23.7901091,25.8211452 L3.27447273,14.1453871 Z M23.7901091,28.3121129 L44.3079273,39.987871 L23.7901091,51.6723387 L3.27447273,39.987871 L23.7901091,28.3121129 Z M47.4750545,39.5462903 C47.4689455,39.5223387 47.4606545,39.4875 47.4388364,39.4474355 C47.4226909,39.4204355 47.4017455,39.4021452 47.3943273,39.3973548 C47.352,39.3346452 47.3053091,39.2863065 47.256,39.2370968 C47.2045091,39.1830968 47.1525818,39.1347581 47.0875636,39.0877258 L25.9810909,27.066629 L47.0007273,15.1065 L47.0360727,15.0869032 C47.1312,15.0329032 47.2224,14.9532097 47.3262545,14.8334516 C47.3454545,14.8077581 47.3659636,14.7811935 47.3943273,14.742871 C47.4091636,14.7263226 47.4244364,14.7093387 47.4423273,14.6797258 C47.4606545,14.6435806 47.4689455,14.6100484 47.4820364,14.5630161 C47.5169455,14.4837581 47.5392,14.4149516 47.5509818,14.3487581 C47.5649455,14.2799516 47.5671273,14.2168065 47.5671273,14.1453871 C47.5671273,14.0778871 47.5649455,14.0108226 47.5509818,13.9424516 C47.5357091,13.8614516 47.5064727,13.7895968 47.4750545,13.7072903 C47.4689455,13.6820323 47.4606545,13.6467581 47.4410182,13.6110484 C47.4244364,13.5814355 47.4030545,13.5609677 47.3943273,13.5574839 C47.3493818,13.4886774 47.2952727,13.4338065 47.2411636,13.3811129 C47.1966545,13.3366935 47.1477818,13.2866129 47.0958545,13.2565645 L24.3346909,0.27783871 C24.2932364,0.252580645 24.2539636,0.243870968 24.2129455,0.23516129 C24.1483636,0.206419355 24.0759273,0.178548387 23.9925818,0.161564516 C23.8555636,0.137177419 23.7233455,0.136306452 23.5863273,0.162435484 C23.5095273,0.177241935 23.4436364,0.202064516 23.3528727,0.238209677 C23.3262545,0.243870968 23.2861091,0.252580645 23.2525091,0.275225806 L0.575127273,13.1895 L0.522763636,13.1912419 L0.490909091,13.2404516 C0.409745455,13.2940161 0.335563636,13.3632581 0.252654545,13.460371 C0.232145455,13.485629 0.216,13.5078387 0.200727273,13.5309194 C0.1296,13.6302097 0.0789818182,13.7295 0.048,13.8300968 L0.0366545455,13.8631935 C0.0113454545,13.9563871 0,14.0508871 0,14.1453871 L0,39.987871 C0,40.080629 0.0113454545,40.176 0.0366545455,40.269629 L0.0410181818,40.2792097 C0.0724363636,40.3898226 0.1248,40.4986935 0.198109091,40.5988548 C0.218618182,40.6275968 0.236072727,40.6537258 0.257018182,40.6789839 C0.315054545,40.7460484 0.392290909,40.8287903 0.491345455,40.8945484 L0.511854545,40.9455 L0.577309091,40.9455 L23.2498909,53.8545484 C23.3384727,53.906371 23.4283636,53.9438226 23.5112727,53.9634194 C23.6002909,53.9878065 23.6910545,54 23.7901091,54 L23.7922909,54 C23.8896,54 23.9834182,53.9878065 24.0641455,53.9647258 C24.1544727,53.9438226 24.2443636,53.906371 24.3298909,53.8554194 L47.0312727,40.9302581 C47.1298909,40.8749516 47.2254545,40.7939516 47.3232,40.6798548 C47.3454545,40.6524194 47.3633455,40.6275968 47.4008727,40.5757742 C47.4144,40.5609677 47.4261818,40.5448548 47.4410182,40.5226452 C47.4606545,40.4869355 47.4689455,40.4512258 47.4820364,40.4033226 C47.5169455,40.323629 47.5392,40.2587419 47.5509818,40.1921129 C47.5649455,40.1215645 47.5671273,40.0549355 47.5671273,39.987871 C47.5671273,39.9164516 47.5645091,39.8506935 47.5509818,39.785371 C47.5374545,39.7078548 47.5104,39.6407903 47.4750545,39.5462903 Z" id="Fill-3" fill="#575756" mask="url(#mask-2)"></path>
                </g>
                <path d="M63.9792023,26.5970063 C63.0491812,26.7836472 61.3767708,27 60.1049432,27 C55.9503667,27 55,24.815548 55,20.5115081 C55,15.9697731 56.0322013,14 60.1049432,14 C61.5142168,14 63.146388,14.2791244 64,14.4611621 L63.9208781,16.1170771 C63.0265749,15.9697731 61.3767708,15.8212136 60.4033457,15.8212136 C57.9008339,15.8212136 57.2854918,16.9423145 57.2854918,20.5115081 C57.2854918,23.9702237 57.7814729,25.1817158 60.462122,25.1817158 C61.4757862,25.1817158 63.0654577,25.0348302 63.9208781,24.9046837 L63.9792023,26.5970063 Z" id="Fill-6" fill="#575756"></path>
                <path d="M73.7290033,20.5675841 C73.7290033,17.4382102 73.1160948,15.7827137 70.510335,15.7827137 C67.9018791,15.7827137 67.2732435,17.4382102 67.2732435,20.5675841 C67.2732435,23.7124417 67.8848039,25.2181233 70.510335,25.2181233 C73.1372141,25.2181233 73.7290033,23.7668437 73.7290033,20.5675841 M65,20.5675841 C65,16.3543538 66.2851307,14 70.510335,14 C74.7328431,14 76,16.3392886 76,20.5675841 C76,24.8519556 74.7328431,27 70.510335,27 C66.2667075,27 65,24.815548 65,20.5675841" id="Fill-8" fill="#575756"></path>
                <polygon id="Fill-10" fill="#575756" points="78 14 81.6215444 14 84.4897564 24.1533887 87.3609561 14 91 14 91 27 88.8970714 27 88.8970714 16.3369767 88.6170793 16.3369767 85.578994 26.4730897 83.4030797 26.4730897 80.3658481 16.3369767 80.0837218 16.3369767 80.0837218 27 78 27"></polygon>
                <polygon id="Fill-12" fill="#575756" points="94 14 102 14 102 15.844186 96.0557458 15.844186 96.0557458 19.5256478 100.890142 19.5256478 100.890142 21.349103 96.0557458 21.349103 96.0557458 25.1428571 102 25.1428571 102 27 94 27"></polygon>
                <path d="M108.746006,15.8243189 L106.026226,15.8243189 L106.026226,20.548804 L108.782159,20.548804 C110.317204,20.548804 110.900222,19.5036213 110.900222,18.1556811 C110.900222,16.6768771 110.209161,15.8243189 108.746006,15.8243189 Z M106.026226,22.3692359 L106.026226,27 L104,27 L104,14 L108.746006,14 C111.503601,14 112.982962,15.2533555 112.982962,18.1388372 C112.982962,19.9817276 112.269462,21.2497674 110.938037,21.897608 L113,27 L110.773894,27 L108.96791,22.3692359 L106.026226,22.3692359 Z" id="Fill-14" fill="#575756"></path>
                <path d="M124.978299,26.5970063 C124.048325,26.7836472 122.37645,27 121.106043,27 C116.952579,27 116,24.815548 116,20.5115081 C116,15.9697731 117.033054,14 121.106043,14 C122.512985,14 124.146431,14.2791244 125,14.4611621 L124.919526,16.1170771 C124.027528,15.9697731 122.37645,15.8212136 121.401266,15.8212136 C118.900236,15.8212136 118.285829,16.9423145 118.285829,20.5115081 C118.285829,23.9702237 118.780429,25.1817158 121.463656,25.1817158 C122.475913,25.1817158 124.065957,25.0348302 124.919526,24.9046837 L124.978299,26.5970063 Z" id="Fill-16" fill="#575756"></path>
                <polygon id="Fill-18" fill="#575756" points="127 27 129 27 129 14 127 14"></polygon>
                <path d="M139.73023,20.5675841 C139.73023,17.4382102 139.119743,15.7827137 136.511913,15.7827137 C133.902285,15.7827137 133.26932,17.4382102 133.26932,20.5675841 C133.26932,23.7124417 133.882055,25.2181233 136.511913,25.2181233 C139.138624,25.2181233 139.73023,23.7668437 139.73023,20.5675841 M131,20.5675841 C131,16.3543538 132.28436,14 136.511913,14 C140.73587,14 142,16.3392886 142,20.5675841 C142,24.8519556 140.73587,27 136.511913,27 C132.261882,27 131,24.815548 131,20.5675841" id="Fill-20" fill="#575756"></path>
                <path d="M76.1322097,36.0361134 C77.5020247,36.0361134 78.1162307,35.2195028 78.1162307,33.6904845 C78.1162307,32.1814561 77.5020247,31.5434791 76.1322097,31.5434791 L73.8360512,31.5434791 L73.8360512,36.0361134 L76.1322097,36.0361134 Z M73.8360512,37.5808684 L73.8360512,41 L72,41 L72,30 L76.1501587,30 C78.7260589,30 80,31.2232146 80,33.6904845 C80,36.1832734 78.7260589,37.5808684 76.1501587,37.5808684 L73.8360512,37.5808684 Z" id="Fill-21" fill="#009FE3"></path>
                <path d="M91.2199172,31.5432925 L88.8006127,31.5432925 L88.8006127,35.5419003 L91.2513033,35.5419003 C92.615521,35.5419003 93.1348955,34.657102 93.1348955,33.516648 C93.1348955,32.264318 92.5170635,31.5432925 91.2199172,31.5432925 Z M88.8006127,37.0834912 L88.8006127,41 L87,41 L87,30 L91.2199172,30 C93.669318,30 94.9853818,31.0596311 94.9853818,33.5004834 C94.9853818,35.0586643 94.3520718,36.1370123 93.1675713,36.6815035 L95,41 L93.01967,41 L91.412103,37.0834912 L88.8006127,37.0834912 Z" id="Fill-22" fill="#009FE3"></path>
                <polygon id="Fill-23" fill="#009FE3" points="104 30 111 30 111 31.5593968 105.797645 31.5593968 105.797645 34.6752127 110.027349 34.6752127 110.027349 36.2163186 105.797645 36.2163186 105.797645 39.4261408 111 39.4261408 111 41 104 41"></polygon>
                <path d="M126.582196,31.9267353 C126.582196,31.9267353 124.148615,31.6586717 123.138423,31.6586717 C121.678643,31.6586717 120.930097,32.1665108 120.930097,33.1700655 C120.930097,34.2530964 121.55473,34.5063424 123.591236,35.0496539 C126.093914,35.7258746 127,36.3724602 127,38.3544247 C127,40.8994574 125.363793,42 123.015892,42 C121.470432,42 119.123453,41.5437979 119.123453,41.5437979 L119.312316,40.0324041 C119.312316,40.0324041 121.659296,40.3363891 122.897507,40.3363891 C124.372488,40.3363891 125.05332,39.6924977 125.05332,38.4747615 C125.05332,37.4873714 124.514827,37.14971 122.684689,36.7276333 C120.115219,36.0810477 119,35.3226567 119,33.3016277 C119,30.9635921 120.582772,30 122.964761,30 C124.478897,30 126.738354,30.4018709 126.738354,30.4018709 L126.582196,31.9267353 Z" id="Fill-24" fill="#009FE3"></path>
                <path d="M141.581178,31.9267353 C141.581178,31.9267353 139.146576,31.6586717 138.138916,31.6586717 C136.676496,31.6586717 135.927777,32.1665108 135.927777,33.1700655 C135.927777,34.2530964 136.554858,34.5063424 138.588147,35.0496539 C141.095548,35.7258746 142,36.3724602 142,38.3544247 C142,40.8994574 140.366642,42 138.015435,42 C136.466855,42 134.117952,41.5437979 134.117952,41.5437979 L134.308702,40.0324041 C134.308702,40.0324041 136.66037,40.3363891 137.89564,40.3363891 C139.373265,40.3363891 140.051489,39.6924977 140.051489,38.4747615 C140.051489,37.4873714 139.512872,37.14971 137.68692,36.7276333 C135.109946,36.0810477 134,35.3226567 134,33.3016277 C134,30.9635921 135.579451,30 137.963831,30 C139.476473,30 141.739676,30.4018709 141.739676,30.4018709 L141.581178,31.9267353 Z" id="Fill-25" fill="#009FE3"></path>
                <polygon id="Fill-26" fill="#009FE3" points="64 30 62.0465219 30 59.5520603 34.3349188 57.0921577 30 55 30 58.2197607 35.6863109 55 41 56.9592379 41 59.4683208 36.8569219 61.9255649 41 64 41 60.8918919 35.6552591"></polygon>
            </g>
        </g>
    </g>
</svg>